<svg width="38" height="38" viewBox="0 0 38 38" fill="none" xmlns="http://www.w3.org/2000/svg">
<path d="M29.0208 18.6626H31.6714C32.2707 18.6626 32.7582 18.1751 32.7582 17.5758V14.9252C32.7582 14.3259 32.2707 13.8384 31.6714 13.8384H29.0208C28.4215 13.8384 27.934 14.3259 27.934 14.9252V17.5758C27.934 18.1751 28.4215 18.6626 29.0208 18.6626ZM29.0473 14.9517H31.6449V17.5493H29.0473V14.9517ZM29.0208 25.7134H31.6714C32.2707 25.7134 32.7582 25.2258 32.7582 24.6266V21.9759C32.7582 21.3767 32.2707 20.8892 31.6714 20.8892H29.0208C28.4215 20.8892 27.934 21.3767 27.934 21.9759V24.6266C27.934 25.2258 28.4215 25.7134 29.0208 25.7134ZM29.0473 22.0024H31.6449V24.6001H29.0473V22.0024ZM21.4567 18.6626H24.1074C24.7066 18.6626 25.1941 18.1751 25.1941 17.5758V14.9252C25.1941 14.3259 24.7066 13.8384 24.1074 13.8384H21.4567C20.8575 13.8384 20.3699 14.3259 20.3699 14.9252V17.5758C20.3699 18.1751 20.8575 18.6626 21.4567 18.6626ZM21.4832 14.9517H24.0809V17.5493H21.4832V14.9517ZM8.97921 27.6094H6.32856C5.72932 27.6094 5.24178 28.0969 5.24178 28.6962V31.3468C5.24178 31.9461 5.72932 32.4336 6.32856 32.4336H8.97921C9.57845 32.4336 10.066 31.9461 10.066 31.3468V28.6962C10.066 28.0969 9.57845 27.6094 8.97921 27.6094ZM8.95271 31.3203H6.35506V28.7227H8.95271V31.3203ZM8.97921 13.8384H6.32856C5.72932 13.8384 5.24178 14.3259 5.24178 14.9252V17.5758C5.24178 18.1751 5.72932 18.6626 6.32856 18.6626H8.97921C9.57845 18.6626 10.066 18.1751 10.066 17.5758V14.9252C10.066 14.3259 9.57845 13.8384 8.97921 13.8384ZM8.95271 17.5493H6.35506V14.9517H8.95271V17.5493ZM21.4567 25.5481H24.1074C24.7066 25.5481 25.1941 25.0606 25.1941 24.4613V21.8107C25.1941 21.2114 24.7066 20.7239 24.1074 20.7239H21.4567C20.8575 20.7239 20.3699 21.2114 20.3699 21.8107V24.4613C20.3699 25.0606 20.8575 25.5481 21.4567 25.5481ZM21.4832 21.8372H24.0809V24.4348H21.4832V21.8372ZM33.3111 2.54377H30.9312V1.69271C30.9312 0.759332 30.1718 0 29.2385 0H28.9829C28.0496 0 27.2902 0.759332 27.2902 1.69271V2.54377H10.7098V1.69271C10.7098 0.759332 9.95043 0 9.01706 0H8.76145C7.82808 0 7.06874 0.759332 7.06874 1.69271V2.54377H4.68892C3.15222 2.54377 1.90201 3.79399 1.90201 5.33069V35.2168C1.90201 36.7515 3.15052 38 4.68521 38H33.3149C34.8496 38 36.0981 36.7515 36.0981 35.2168V5.33069C36.0981 3.79399 34.8478 2.54377 33.3111 2.54377ZM28.4035 1.69271C28.4035 1.3732 28.6634 1.11328 28.9829 1.11328H29.2385C29.5581 1.11328 29.818 1.3732 29.818 1.69271V2.54377H28.4035V1.69271ZM8.1821 1.69271C8.1821 1.3732 8.44201 1.11328 8.76153 1.11328H9.01713C9.33665 1.11328 9.59656 1.3732 9.59656 1.69271V2.54377H8.18217V1.69271H8.1821ZM34.9848 35.2168C34.9848 36.1376 34.2357 36.8867 33.3149 36.8867H4.68514C3.7643 36.8867 3.01521 36.1376 3.01521 35.2168V35.2133C3.4816 35.5647 4.06133 35.7734 4.68892 35.7734H27.2576C28.002 35.7734 28.7019 35.4835 29.2282 34.9571L34.9848 29.2006V35.2168ZM28.6602 33.9507C28.7039 33.7706 28.7276 33.5827 28.7276 33.3894V29.6737C28.7276 28.9731 29.2977 28.403 29.9984 28.403H33.714C33.9073 28.403 34.0952 28.3792 34.2753 28.3356L28.6602 33.9507ZM34.9848 10.4985H11.2664C10.959 10.4985 10.7098 10.7478 10.7098 11.0552C10.7098 11.3626 10.959 11.6118 11.2664 11.6118H34.9848V26.019C34.9848 26.7197 34.4147 27.2898 33.714 27.2898H29.9984C28.6838 27.2898 27.6143 28.3593 27.6143 29.6738V33.3895C27.6143 34.0902 27.0443 34.6602 26.3436 34.6602H4.68892C3.76609 34.6602 3.01529 33.9094 3.01529 32.9865V11.6118H9.03985C9.34726 11.6118 9.59649 11.3626 9.59649 11.0552C9.59649 10.7478 9.34726 10.4985 9.03985 10.4985H3.01521V5.33069C3.01521 4.40785 3.76601 3.65705 4.68885 3.65705H7.06874V5.29373C7.06874 6.2271 7.82808 6.98643 8.76145 6.98643C9.06886 6.98643 9.31809 6.73721 9.31809 6.42979C9.31809 6.12238 9.06886 5.87315 8.76145 5.87315C8.44194 5.87315 8.18202 5.61324 8.18202 5.29373V3.65705H27.2902V5.29373C27.2902 6.2271 28.0496 6.98643 28.9829 6.98643C29.2903 6.98643 29.5396 6.73721 29.5396 6.42979C29.5396 6.12238 29.2903 5.87315 28.9829 5.87315C28.6634 5.87315 28.4035 5.61324 28.4035 5.29373V3.65705H33.3111C34.234 3.65705 34.9848 4.40785 34.9848 5.33069V10.4985ZM8.97921 20.7239H6.32856C5.72932 20.7239 5.24178 21.2114 5.24178 21.8107V24.4613C5.24178 25.0606 5.72932 25.5481 6.32856 25.5481H8.97921C9.57845 25.5481 10.066 25.0606 10.066 24.4613V21.8107C10.066 21.2113 9.57845 20.7239 8.97921 20.7239ZM8.95271 24.4348H6.35506V21.8372H8.95271V24.4348ZM13.8926 18.6626H16.5433C17.1425 18.6626 17.6301 18.1751 17.6301 17.5758V14.9252C17.6301 14.3259 17.1425 13.8384 16.5433 13.8384H13.8926C13.2934 13.8384 12.8059 14.3259 12.8059 14.9252V17.5758C12.8059 18.1751 13.2934 18.6626 13.8926 18.6626ZM13.9191 14.9517H16.5168V17.5493H13.9191V14.9517ZM21.4825 31.3203C21.4687 31.0251 21.2251 30.7902 20.9265 30.7902C20.6191 30.7902 20.3699 31.0394 20.3699 31.3468C20.3699 31.9461 20.8574 32.4336 21.4566 32.4336H24.1073C24.7065 32.4336 25.1941 31.9461 25.1941 31.3468V28.6962C25.1941 28.0969 24.7065 27.6094 24.1073 27.6094H21.4566C20.8574 27.6094 20.3699 28.0969 20.3699 28.6962V29.4606C20.3699 29.768 20.6191 30.0173 20.9265 30.0173C21.2339 30.0173 21.4831 29.768 21.4831 29.4606V28.7227H24.0808V31.3203H21.4825ZM13.8926 25.5481H16.5433C17.1425 25.5481 17.6301 25.0606 17.6301 24.4613V21.8107C17.6301 21.2114 17.1425 20.7239 16.5433 20.7239H13.8926C13.2934 20.7239 12.8059 21.2114 12.8059 21.8107V24.4613C12.8059 25.0606 13.2934 25.5481 13.8926 25.5481ZM13.9191 21.8372H16.5168V24.4348H13.9191V21.8372ZM13.8926 32.4336H16.5433C17.1425 32.4336 17.6301 31.9461 17.6301 31.3468V28.6962C17.6301 28.0969 17.1425 27.6094 16.5433 27.6094H13.8926C13.2934 27.6094 12.8059 28.0969 12.8059 28.6962V31.3468C12.8059 31.9461 13.2934 32.4336 13.8926 32.4336ZM13.9191 28.7227H16.5168V31.3203H13.9191V28.7227Z" fill="black"/>
</svg>
